<svg width="1280" height="640" viewBox="0 0 1280 640" xmlns="http://www.w3.org/2000/svg">
  <defs>
    <!-- Background gradient -->
    <linearGradient id="bgGradient" x1="0%" y1="0%" x2="100%" y2="100%">
      <stop offset="0%" style="stop-color:#0f172a;stop-opacity:1" />
      <stop offset="100%" style="stop-color:#1e293b;stop-opacity:1" />
    </linearGradient>
    
    <!-- Accent gradient -->
    <linearGradient id="accentGradient" x1="0%" y1="0%" x2="100%" y2="0%">
      <stop offset="0%" style="stop-color:#06b6d4;stop-opacity:1" />
      <stop offset="50%" style="stop-color:#3b82f6;stop-opacity:1" />
      <stop offset="100%" style="stop-color:#8b5cf6;stop-opacity:1" />
    </linearGradient>
    
    <!-- Glow effect -->
    <filter id="glow">
      <feGaussianBlur stdDeviation="8" result="coloredBlur"/>
      <feMerge>
        <feMergeNode in="coloredBlur"/>
        <feMergeNode in="SourceGraphic"/>
      </feMerge>
    </filter>
    
    <!-- Text shadow -->
    <filter id="textShadow">
      <feDropShadow dx="0" dy="4" stdDeviation="8" flood-opacity="0.3"/>
    </filter>
    
    <!-- Subtle pattern -->
    <pattern id="dotPattern" x="0" y="0" width="40" height="40" patternUnits="userSpaceOnUse">
      <circle cx="20" cy="20" r="1" fill="#ffffff" opacity="0.05"/>
    </pattern>
  </defs>
  
  <!-- Background -->
  <rect width="1280" height="640" fill="url(#bgGradient)"/>
  <rect width="1280" height="640" fill="url(#dotPattern)"/>
  
  <!-- Abstract network visualization in background -->
  <g opacity="0.1">
    <!-- Network lines -->
    <path d="M200,100 L400,200 L300,400 L500,300 L700,400 L600,200 L800,300 L1000,200 L900,400" 
          fill="none" stroke="#3b82f6" stroke-width="1"/>
    <path d="M100,300 L300,200 L500,350 L700,250 L900,350 L1100,200" 
          fill="none" stroke="#8b5cf6" stroke-width="1"/>
    
    <!-- Network nodes -->
    <circle cx="200" cy="100" r="3" fill="#3b82f6"/>
    <circle cx="400" cy="200" r="3" fill="#3b82f6"/>
    <circle cx="300" cy="400" r="3" fill="#3b82f6"/>
    <circle cx="500" cy="300" r="3" fill="#8b5cf6"/>
    <circle cx="700" cy="400" r="3" fill="#8b5cf6"/>
    <circle cx="600" cy="200" r="3" fill="#8b5cf6"/>
    <circle cx="800" cy="300" r="3" fill="#06b6d4"/>
    <circle cx="1000" cy="200" r="3" fill="#06b6d4"/>
    <circle cx="900" cy="400" r="3" fill="#06b6d4"/>
  </g>
  
  <!-- Left side - Logo area -->
  <g transform="translate(200, 320)">
    <!-- Hexagon cluster from logo-alt -->
    <g transform="scale(2.5)" filter="url(#glow)">
      <!-- Center hexagon (leader) -->
      <path d="M 0,-30 L 26,-15 L 26,15 L 0,30 L -26,15 L -26,-15 Z"
            fill="url(#accentGradient)"
            opacity="1"/>
      
      <!-- Top left hexagon -->
      <g transform="translate(-45, -25)">
        <path d="M 0,-15 L 13,-7.5 L 13,7.5 L 0,15 L -13,7.5 L -13,-7.5 Z"
              fill="#64748b"
              opacity="0.8"/>
      </g>
      
      <!-- Top right hexagon -->
      <g transform="translate(45, -25)">
        <path d="M 0,-15 L 13,-7.5 L 13,7.5 L 0,15 L -13,7.5 L -13,-7.5 Z"
              fill="#64748b"
              opacity="0.8"/>
      </g>
      
      <!-- Bottom hexagon -->
      <g transform="translate(0, 50)">
        <path d="M 0,-15 L 13,-7.5 L 13,7.5 L 0,15 L -13,7.5 L -13,-7.5 Z"
              fill="#64748b"
              opacity="0.8"/>
      </g>
      
      <!-- Connection lines -->
      <g stroke="#475569" stroke-width="2" fill="none" opacity="0.6">
        <line x1="0" y1="-15" x2="-32" y2="-25"/>
        <line x1="0" y1="-15" x2="32" y2="-25"/>
        <line x1="0" y1="15" x2="0" y2="35"/>
      </g>
      
      <!-- Center dot -->
      <circle cx="0" cy="0" r="6" fill="white" opacity="0.9"/>
    </g>
  </g>
  
  <!-- Right side - Text content -->
  <g transform="translate(640, 320)">
    <!-- RAFT title -->
    <text x="0" y="-80" font-family="-apple-system, BlinkMacSystemFont, 'Segoe UI', sans-serif" 
          font-size="120" font-weight="800" fill="white" filter="url(#textShadow)">RAFT</text>
    
    <!-- Tagline -->
    <text x="0" y="-20" font-family="-apple-system, BlinkMacSystemFont, 'Segoe UI', sans-serif" 
          font-size="32" font-weight="400" fill="#94a3b8">Production-ready Raft consensus for Node.js</text>
    
    <!-- Feature highlights -->
    <g transform="translate(0, 40)" fill="#cbd5e1" font-family="-apple-system, BlinkMacSystemFont, 'Segoe UI', sans-serif" font-size="24">
      <text x="0" y="0">✓ Distributed Consensus</text>
      <text x="0" y="35">✓ High Availability</text>
      <text x="280" y="0">✓ Leader Election</text>
      <text x="280" y="35">✓ TypeScript First</text>
    </g>
    
    <!-- Call to action -->
    <g transform="translate(0, 140)">
      <rect x="-10" y="-30" width="320" height="50" rx="25" fill="url(#accentGradient)" opacity="0.9"/>
      <text x="150" y="-1" text-anchor="middle" font-family="-apple-system, BlinkMacSystemFont, 'Segoe UI', sans-serif" 
            font-size="20" font-weight="600" fill="white">npm install @usex/raft</text>
    </g>
  </g>
  
  <!-- Bottom decoration -->
  <rect x="0" y="600" width="1280" height="4" fill="url(#accentGradient)" opacity="0.8"/>
  
  <!-- GitHub corner -->
  <g transform="translate(1180, 40)">
    <circle cx="0" cy="0" r="30" fill="#1e293b" opacity="0.8"/>
    <path d="M-15,-15 C-15,-15 -15,-10 -12,-7 C-10,-5 -5,-3 0,-5 C5,-3 10,-5 12,-7 C15,-10 15,-15 15,-15 C15,-20 10,-25 0,-25 C-10,-25 -15,-20 -15,-15 Z" 
          fill="white" transform="scale(1.2)"/>
  </g>
  
  <!-- Decorative elements -->
  <g opacity="0.3">
    <!-- Top right accent -->
    <circle cx="1100" cy="150" r="60" fill="none" stroke="url(#accentGradient)" stroke-width="1"/>
    <circle cx="1100" cy="150" r="80" fill="none" stroke="url(#accentGradient)" stroke-width="0.5"/>
    
    <!-- Bottom left accent -->
    <circle cx="100" cy="500" r="50" fill="none" stroke="url(#accentGradient)" stroke-width="1"/>
    <circle cx="100" cy="500" r="70" fill="none" stroke="url(#accentGradient)" stroke-width="0.5"/>
  </g>
</svg>